<svg width="340" height="181" viewBox="0 0 340 181" fill="none" xmlns="http://www.w3.org/2000/svg">
<g clip-path="url(#clip0_136_44)">
<path d="M10.9299 6.90792C12.4066 6.90792 13.6038 6.0425 13.6038 4.97495C13.6038 3.90741 12.4066 3.04199 10.9299 3.04199C9.45312 3.04199 8.25598 3.90741 8.25598 4.97495C8.25598 6.0425 9.45312 6.90792 10.9299 6.90792Z" fill="white"/>
<path d="M21.079 6.90792C22.5558 6.90792 23.7529 6.0425 23.7529 4.97495C23.7529 3.90741 22.5558 3.04199 21.079 3.04199C19.6023 3.04199 18.4052 3.90741 18.4052 4.97495C18.4052 6.0425 19.6023 6.90792 21.079 6.90792Z" fill="white"/>
<path d="M31.2287 6.90792C32.7054 6.90792 33.9026 6.0425 33.9026 4.97495C33.9026 3.90741 32.7054 3.04199 31.2287 3.04199C29.7519 3.04199 28.5548 3.90741 28.5548 4.97495C28.5548 6.0425 29.7519 6.90792 31.2287 6.90792Z" fill="white"/>
<path d="M328.173 3.64472H316.485C316.256 3.64436 316.036 3.57826 315.874 3.46093C315.713 3.34361 315.622 3.18463 315.622 3.01889C315.622 2.85315 315.713 2.69418 315.874 2.57686C316.036 2.45953 316.256 2.39343 316.485 2.39307H328.173C328.402 2.39295 328.622 2.45867 328.785 2.57579C328.947 2.69292 329.038 2.85187 329.039 3.01772C329.039 3.18357 328.949 3.34277 328.787 3.46033C328.625 3.5779 328.405 3.64422 328.176 3.64472H328.173Z" fill="white"/>
<path d="M328.173 5.9914H316.485C316.256 5.99104 316.036 5.92494 315.874 5.80761C315.713 5.69029 315.622 5.53132 315.622 5.36558C315.622 5.19984 315.713 5.04086 315.874 4.92354C316.036 4.80621 316.256 4.74011 316.485 4.73975H328.173C328.402 4.73963 328.622 4.80535 328.785 4.92247C328.947 5.0396 329.038 5.19855 329.039 5.3644C329.039 5.53025 328.949 5.68945 328.787 5.80701C328.625 5.92458 328.405 5.9909 328.176 5.9914H328.173Z" fill="white"/>
<path d="M328.173 8.33857H316.485C316.256 8.33857 316.036 8.27264 315.873 8.15527C315.711 8.0379 315.62 7.87873 315.62 7.71275C315.62 7.54677 315.711 7.38758 315.873 7.27022C316.036 7.15285 316.256 7.08692 316.485 7.08692H328.173C328.402 7.0866 328.623 7.15224 328.785 7.26938C328.948 7.38653 329.04 7.54559 329.04 7.71157C329.04 7.87755 328.95 8.03685 328.788 8.15444C328.626 8.27203 328.405 8.33826 328.176 8.33857H328.173Z" fill="white"/>
<path d="M95.8725 159.144C97.1097 151.952 103.275 144.865 112.764 142.525C109.022 149.927 109.022 158.048 112.766 165.45C114.224 168.301 116.256 171.363 114.885 174.236C114.031 176.024 111.944 177.392 109.611 178.247C107.277 179.102 104.688 179.51 102.13 179.909L101.627 180.21C97.5675 173.584 94.6353 166.336 95.8725 159.144Z" fill="#F0F0F0"/>
<path d="M112.858 142.661C107.332 147.137 103.898 152.757 103.043 158.724C102.827 160.006 102.892 161.305 103.236 162.572C103.626 163.799 104.464 164.928 105.661 165.842C106.755 166.71 108.012 167.507 108.794 168.552C109.183 169.091 109.411 169.684 109.461 170.291C109.511 170.898 109.383 171.506 109.086 172.075C108.395 173.507 107.034 174.674 105.648 175.782C104.11 177.012 102.484 178.272 101.83 179.903C101.751 180.1 101.332 180 101.411 179.802C102.549 176.965 106.358 175.354 108.175 172.799C109.023 171.606 109.379 170.222 108.584 168.963C107.889 167.863 106.594 167.04 105.476 166.168C104.29 165.289 103.419 164.213 102.94 163.035C102.508 161.784 102.374 160.49 102.543 159.206C102.859 156.313 103.804 153.473 105.34 150.792C107.071 147.724 109.514 144.893 112.565 142.422C112.754 142.269 113.045 142.509 112.858 142.661Z" fill="white"/>
<path d="M103.162 156.791C101.796 156.551 100.593 155.968 99.7674 155.147C98.9415 154.325 98.5464 153.318 98.6529 152.305C98.6578 152.264 98.6846 152.225 98.7277 152.198C98.7709 152.171 98.827 152.157 98.8842 152.159C98.9415 152.161 98.9954 152.179 99.0345 152.209C99.0737 152.239 99.0952 152.28 99.0943 152.321C98.9928 153.264 99.3609 154.202 100.132 154.966C100.903 155.73 102.027 156.27 103.3 156.487C103.577 156.535 103.437 156.838 103.162 156.791Z" fill="white"/>
<path d="M105.027 165.454C107.493 164.39 109.313 162.692 110.125 160.701C110.205 160.503 110.625 160.604 110.545 160.801C109.695 162.872 107.795 164.636 105.226 165.739C104.981 165.844 104.783 165.559 105.027 165.454Z" fill="white"/>
<path d="M107.481 148.027C107.982 148.199 108.535 148.278 109.09 148.258C109.644 148.238 110.183 148.118 110.658 147.91C110.901 147.803 111.098 148.089 110.857 148.195C110.331 148.423 109.735 148.555 109.123 148.578C108.51 148.602 107.899 148.517 107.342 148.33C107.288 148.315 107.243 148.287 107.217 148.249C107.191 148.212 107.185 148.168 107.202 148.128C107.22 148.088 107.26 148.055 107.312 148.036C107.364 148.017 107.425 148.013 107.481 148.027Z" fill="white"/>
<path d="M141.685 155.371C141.535 155.441 141.386 155.511 141.237 155.584C139.239 156.534 137.351 157.599 135.591 158.77C135.453 158.859 135.315 158.951 135.181 159.042C130.983 161.896 127.556 165.288 125.071 169.047C124.084 170.543 123.257 172.091 122.595 173.678C121.681 175.87 120.932 178.299 119.123 180.092C118.937 180.28 118.735 180.46 118.519 180.631H102.174C102.137 180.617 102.099 180.606 102.062 180.593L101.409 180.615C101.436 180.531 101.465 180.445 101.492 180.361C101.506 180.313 101.525 180.264 101.54 180.216C101.551 180.183 101.562 180.151 101.57 180.121C101.574 180.11 101.577 180.1 101.581 180.092C101.588 180.062 101.6 180.035 101.607 180.008C101.771 179.525 101.94 179.043 102.114 178.56C102.114 178.558 102.114 178.558 102.118 178.555C103.395 174.869 105.273 171.305 107.712 167.939C107.786 167.839 107.861 167.736 107.943 167.637C109.072 166.147 110.368 164.726 111.818 163.388C112.615 162.658 113.462 161.957 114.357 161.288C116.674 159.564 119.352 158.114 122.293 156.991C128.155 154.753 134.942 153.896 141.207 155.263C141.368 155.298 141.524 155.333 141.685 155.371Z" fill="#F0F0F0"/>
<path d="M141.648 155.521C133.509 156.689 126.086 159.682 120.433 164.074C119.193 165.004 118.164 166.069 117.383 167.231C116.672 168.38 116.401 169.646 116.596 170.897C116.746 172.066 117.086 173.249 116.84 174.424C116.702 175.024 116.39 175.596 115.924 176.103C115.458 176.61 114.85 177.04 114.138 177.365C112.395 178.207 110.336 178.547 108.307 178.828C106.054 179.14 103.707 179.439 101.826 180.457C101.599 180.58 101.347 180.317 101.575 180.194C104.846 178.424 109.23 178.795 112.809 177.546C114.479 176.963 115.916 176.012 116.33 174.661C116.692 173.48 116.342 172.26 116.176 171.077C115.961 169.859 116.162 168.621 116.761 167.472C117.458 166.285 118.429 165.193 119.632 164.242C122.295 162.069 125.414 160.213 128.874 158.741C132.81 157.045 137.119 155.848 141.614 155.202C141.892 155.162 141.924 155.481 141.648 155.521Z" fill="white"/>
<path d="M122.138 162.582C121.248 161.797 120.772 160.808 120.797 159.792C120.822 158.777 121.346 157.801 122.274 157.038C122.463 156.885 122.802 157.089 122.613 157.243C121.747 157.952 121.259 158.861 121.239 159.807C121.218 160.753 121.666 161.672 122.502 162.4C122.683 162.559 122.319 162.74 122.138 162.582Z" fill="white"/>
<path d="M116.412 170.311C119.268 170.535 122.135 169.972 124.442 168.735C124.67 168.612 124.921 168.875 124.693 168.998C122.289 170.281 119.304 170.863 116.333 170.626C116.05 170.603 116.131 170.289 116.412 170.311Z" fill="white"/>
<path d="M132.886 157.464C133.143 157.82 133.518 158.124 133.978 158.35C134.438 158.575 134.967 158.714 135.52 158.754C135.803 158.774 135.723 159.089 135.441 159.069C134.831 159.022 134.246 158.868 133.737 158.62C133.229 158.372 132.811 158.038 132.523 157.646C132.491 157.611 132.479 157.569 132.49 157.527C132.5 157.486 132.532 157.449 132.578 157.424C132.627 157.4 132.686 157.391 132.744 157.399C132.801 157.406 132.852 157.43 132.886 157.464Z" fill="white"/>
<path d="M110.204 55.8401H56.127C54.4559 55.8388 52.8538 55.3582 51.6721 54.504C50.4905 53.6498 49.8258 52.4916 49.824 51.2835V29.9919C49.8258 28.7839 50.4905 27.6257 51.6722 26.7715C52.8538 25.9173 54.4559 25.4369 56.127 25.4355H110.204C111.875 25.4369 113.477 25.9173 114.659 26.7715C115.84 27.6257 116.505 28.7838 116.507 29.9919V51.2835C116.505 52.4916 115.841 53.6498 114.659 54.504C113.477 55.3582 111.875 55.8388 110.204 55.8401Z" fill="#E6E6E6"/>
<path d="M192.764 55.8401H138.687C137.016 55.8388 135.414 55.3582 134.232 54.504C133.051 53.6498 132.386 52.4916 132.384 51.2835V29.9919C132.386 28.7839 133.051 27.6257 134.232 26.7715C135.414 25.9173 137.016 25.4369 138.687 25.4355H192.764C194.435 25.4369 196.037 25.9173 197.219 26.7715C198.401 27.6257 199.065 28.7838 199.067 29.9919V51.2835C199.065 52.4916 198.401 53.6498 197.219 54.504C196.037 55.3582 194.435 55.8387 192.764 55.8401Z" fill="#665FD0"/>
<path d="M275.324 55.8401H221.247C219.576 55.8388 217.974 55.3582 216.792 54.504C215.61 53.6498 214.946 52.4916 214.944 51.2835V29.9919C214.946 28.7839 215.61 27.6257 216.792 26.7715C217.974 25.9173 219.576 25.4369 221.247 25.4355H275.324C276.995 25.4369 278.597 25.9173 279.779 26.7715C280.96 27.6257 281.625 28.7838 281.627 29.9919V51.2835C281.625 52.4916 280.961 53.6498 279.779 54.504C278.597 55.3582 276.995 55.8387 275.324 55.8401Z" fill="#E6E6E6"/>
<path d="M110.204 103.281H56.127C54.4559 103.279 52.8538 102.799 51.6721 101.944C50.4905 101.09 49.8258 99.932 49.824 98.724V77.4323C49.8258 76.2243 50.4905 75.0661 51.6722 74.2119C52.8538 73.3578 54.4559 72.8773 56.127 72.876H110.204C111.875 72.8773 113.477 73.3578 114.659 74.2119C115.84 75.0661 116.505 76.2243 116.507 77.4323V98.7239C116.505 99.932 115.841 101.09 114.659 101.944C113.477 102.799 111.875 103.279 110.204 103.281Z" fill="#F2F2F2"/>
<path d="M192.764 103.281H138.687C137.016 103.279 135.414 102.799 134.232 101.944C133.051 101.09 132.386 99.932 132.384 98.724V77.4323C132.386 76.2243 133.051 75.0661 134.232 74.2119C135.414 73.3578 137.016 72.8773 138.687 72.876H192.764C194.435 72.8773 196.037 73.3578 197.219 74.2119C198.401 75.0661 199.065 76.2243 199.067 77.4323V98.7239C199.065 99.932 198.401 101.09 197.219 101.944C196.037 102.799 194.435 103.279 192.764 103.281Z" fill="#E6E6E6"/>
<path d="M196.582 107.198C201.917 107.198 206.241 104.073 206.241 100.216C206.241 96.3604 201.917 93.2344 196.582 93.2344C191.248 93.2344 186.924 96.3604 186.924 100.216C186.924 104.073 191.248 107.198 196.582 107.198Z" fill="#6C63FF"/>
<path d="M200.593 99.6303H197.309V97.2564C197.309 97.183 197.289 97.1104 197.251 97.0426C197.212 96.9748 197.155 96.9132 197.083 96.8614C197.011 96.8095 196.926 96.7684 196.832 96.7403C196.739 96.7122 196.638 96.6978 196.537 96.6978C196.435 96.6978 196.335 96.7122 196.241 96.7403C196.147 96.7684 196.062 96.8095 195.99 96.8614C195.918 96.9132 195.862 96.9748 195.823 97.0426C195.784 97.1104 195.764 97.183 195.764 97.2564V99.6303H192.48C192.379 99.6303 192.278 99.6447 192.184 99.6728C192.091 99.7008 192.005 99.742 191.934 99.7939C191.862 99.8457 191.805 99.9073 191.766 99.9751C191.727 100.043 191.707 100.115 191.707 100.189C191.707 100.262 191.727 100.335 191.766 100.403C191.805 100.47 191.862 100.532 191.934 100.584C192.005 100.636 192.091 100.677 192.184 100.705C192.278 100.733 192.379 100.747 192.48 100.747H195.764V103.121C195.764 103.195 195.784 103.267 195.823 103.335C195.862 103.403 195.919 103.464 195.99 103.516C196.062 103.568 196.147 103.609 196.241 103.637C196.335 103.666 196.435 103.68 196.537 103.68C196.742 103.68 196.938 103.621 197.083 103.516C197.228 103.412 197.309 103.27 197.309 103.121V100.747H200.593C200.695 100.747 200.795 100.733 200.889 100.705C200.983 100.677 201.068 100.636 201.14 100.584C201.211 100.532 201.268 100.47 201.307 100.403C201.346 100.335 201.366 100.262 201.366 100.189C201.366 100.115 201.346 100.043 201.307 99.9751C201.268 99.9073 201.211 99.8457 201.14 99.7938C201.068 99.742 200.983 99.7008 200.889 99.6728C200.795 99.6447 200.695 99.6303 200.593 99.6303Z" fill="white"/>
<path d="M280.412 60.9822C285.747 60.9822 290.071 57.8562 290.071 54.0001C290.071 50.144 285.747 47.0181 280.412 47.0181C275.078 47.0181 270.754 50.144 270.754 54.0001C270.754 57.8562 275.078 60.9822 280.412 60.9822Z" fill="#6C63FF"/>
<path d="M284.423 53.4139H281.139V51.0401C281.139 50.9667 281.119 50.8941 281.081 50.8263C281.042 50.7585 280.985 50.6969 280.913 50.6451C280.841 50.5932 280.756 50.552 280.662 50.524C280.569 50.4959 280.468 50.4814 280.367 50.4814C280.265 50.4814 280.165 50.4959 280.071 50.524C279.977 50.552 279.892 50.5932 279.82 50.6451C279.749 50.6969 279.692 50.7585 279.653 50.8263C279.614 50.8941 279.594 50.9667 279.594 51.0401V53.4139H276.31C276.209 53.4139 276.108 53.4284 276.014 53.4565C275.921 53.4845 275.836 53.5257 275.764 53.5776C275.692 53.6294 275.635 53.691 275.596 53.7588C275.557 53.8266 275.537 53.8992 275.537 53.9725C275.537 54.0459 275.557 54.1185 275.596 54.1863C275.635 54.2541 275.692 54.3157 275.764 54.3675C275.836 54.4194 275.921 54.4606 276.014 54.4886C276.108 54.5167 276.209 54.5312 276.31 54.5312H279.594V56.905C279.594 56.9784 279.614 57.051 279.653 57.1188C279.692 57.1866 279.749 57.2482 279.82 57.3C279.892 57.3519 279.977 57.3931 280.071 57.4211C280.165 57.4492 280.265 57.4636 280.367 57.4636C280.572 57.4636 280.768 57.4048 280.913 57.3C281.058 57.1953 281.139 57.0532 281.139 56.905V54.5311H284.423C284.525 54.5311 284.625 54.5167 284.719 54.4886C284.813 54.4605 284.898 54.4194 284.97 54.3675C285.041 54.3156 285.098 54.2541 285.137 54.1863C285.176 54.1185 285.196 54.0459 285.196 53.9725C285.196 53.8992 285.176 53.8265 285.137 53.7588C285.098 53.691 285.041 53.6294 284.97 53.5775C284.898 53.5257 284.813 53.4845 284.719 53.4564C284.625 53.4284 284.525 53.4139 284.423 53.4139Z" fill="white"/>
<path d="M114.022 60.3704C119.357 60.3704 123.681 57.2444 123.681 53.3883C123.681 49.5322 119.357 46.4062 114.022 46.4062C108.688 46.4062 104.364 49.5322 104.364 53.3883C104.364 57.2444 108.688 60.3704 114.022 60.3704Z" fill="#6C63FF"/>
<path d="M118.033 52.8021H114.749V50.4282C114.749 50.3549 114.729 50.2822 114.69 50.2145C114.652 50.1467 114.595 50.0851 114.523 50.0332C114.451 49.9814 114.366 49.9402 114.272 49.9122C114.178 49.8841 114.078 49.8696 113.976 49.8696C113.875 49.8696 113.775 49.8841 113.681 49.9122C113.587 49.9402 113.502 49.9814 113.43 50.0332C113.358 50.0851 113.301 50.1467 113.263 50.2145C113.224 50.2822 113.204 50.3549 113.204 50.4282V52.8021H109.92C109.818 52.8021 109.718 52.8166 109.624 52.8447C109.53 52.8727 109.445 52.9139 109.374 52.9657C109.302 53.0176 109.245 53.0792 109.206 53.147C109.167 53.2147 109.147 53.2874 109.147 53.3607C109.147 53.5089 109.229 53.651 109.374 53.7557C109.518 53.8605 109.715 53.9193 109.92 53.9193H113.204V56.2932C113.204 56.3666 113.224 56.4392 113.263 56.507C113.301 56.5748 113.358 56.6363 113.43 56.6882C113.502 56.7401 113.587 56.7812 113.681 56.8093C113.775 56.8374 113.875 56.8518 113.976 56.8518C114.078 56.8518 114.178 56.8374 114.272 56.8093C114.366 56.7812 114.451 56.7401 114.523 56.6882C114.595 56.6363 114.652 56.5748 114.69 56.507C114.729 56.4392 114.749 56.3666 114.749 56.2932V53.9193H118.033C118.134 53.9193 118.235 53.9049 118.329 53.8768C118.422 53.8487 118.508 53.8076 118.579 53.7557C118.651 53.7038 118.708 53.6423 118.747 53.5745C118.786 53.5067 118.806 53.4341 118.806 53.3607C118.806 53.2126 118.724 53.0705 118.579 52.9657C118.435 52.861 118.238 52.8021 118.033 52.8021Z" fill="white"/>
<path d="M186.332 43.743C186.509 44.1284 186.566 44.5369 186.5 44.9399C186.434 45.343 186.247 45.7306 185.951 46.0757C185.656 46.4207 185.259 46.7147 184.79 46.937C184.32 47.1593 183.789 47.3044 183.233 47.3621L178.767 69.3991L171.441 66.8126L178.81 44.8155C178.737 44.1343 179.013 43.4575 179.585 42.9135C180.157 42.3695 180.985 41.996 181.912 41.8638C182.839 41.7316 183.801 41.8499 184.616 42.1962C185.431 42.5426 186.041 43.093 186.332 43.743Z" fill="#9E616A"/>
<path d="M132.992 114.322C133.318 113.992 133.54 113.614 133.642 113.215C133.744 112.816 133.724 112.405 133.583 112.012C133.442 111.619 133.184 111.254 132.826 110.941C132.468 110.628 132.02 110.376 131.513 110.202L134.526 86.7612L128.216 89.0995L126.245 111.688C125.897 112.323 125.884 113.028 126.207 113.67C126.53 114.312 127.168 114.846 128 115.171C128.831 115.496 129.799 115.589 130.719 115.432C131.639 115.276 132.448 114.881 132.992 114.322Z" fill="#9E616A"/>
<path d="M137.303 102.466L164.383 101.713L165.945 81.3838H134.699L137.303 102.466Z" fill="#9E616A"/>
<path d="M132.277 174.261L136.904 174.26L139.106 161.357H132.276L132.277 174.261Z" fill="#9E616A"/>
<path d="M131.129 172.61L138.444 172.294V174.56L145.399 178.032C145.742 178.204 146.001 178.45 146.137 178.735C146.273 179.021 146.28 179.33 146.155 179.618C146.031 179.906 145.783 180.158 145.447 180.337C145.11 180.516 144.704 180.612 144.286 180.612H135.577L134.076 178.371L133.49 180.612H130.207L131.129 172.61Z" fill="#2F2E41"/>
<path d="M152.859 174.261L157.487 174.26L159.688 161.357H152.858L152.859 174.261Z" fill="#9E616A"/>
<path d="M136.927 97.6937C136.927 97.6937 128.824 102.423 133.217 119.311C132.548 119.368 133.305 120.321 133.305 120.321L133.939 134.082L134.429 135.659L132.801 138.204L133.472 140.969L131.402 166.064L139.047 166.779L146.364 140.719L147.757 137.789L149.154 135.221L148.401 132.482L149.019 128.232L153.237 113.899L154.269 138.757L152.828 141.13L153.63 143.735L151.844 145.118L151.138 168.376L159.29 168.652L166.035 145.206L165.512 142.214L166.409 140.002V134.835L167.946 132.396L171.297 119.098C171.297 119.098 172.308 108.705 164.933 96.4741L136.927 97.6937Z" fill="#2F2E41"/>
<path d="M140.229 64.4883C140.229 64.4883 129.995 65.9514 128.232 72.2607C126.469 78.57 125.334 92.8476 125.334 92.8476L125.72 94.8359L135.62 96.4953L141.938 76.49L140.229 64.4883Z" fill="#3F3D56"/>
<path d="M163.584 66.6182C163.584 66.6182 164.622 65.5673 170.431 65.4052C170.67 65.3986 170.374 65.0556 170.374 65.0556L173.168 55.1841L182.478 58.9105L180.907 69.2595L165.608 81.8391L163.584 66.6182Z" fill="#3F3D56"/>
<path d="M157.781 96.0465C153.398 96.0467 146.8 95.6971 136.868 94.6311C136.228 94.5613 135.636 94.3455 135.178 94.0152C134.72 93.6849 134.42 93.2573 134.322 92.795C133.997 92.5474 133.786 92.2337 133.717 91.8963C133.648 91.559 133.724 91.2145 133.936 90.9096L133.945 90.8965L133.72 90.7048C133.372 90.4092 133.167 90.0393 133.138 89.6517C133.108 89.2642 133.255 88.8803 133.556 88.5588L130.48 72.6511C130.168 71.0714 130.646 69.463 131.828 68.1152C133.01 66.7675 134.818 65.7688 136.927 65.2989L138.063 65.0433L142.357 60.9829L142.442 60.9836L156.227 61.1163L160.701 65.2232L167.933 66.4559L167.952 66.5354L169.631 73.5486C170.504 77.1963 168.501 78.6312 165.945 81.8389L166.695 90.8477L167.036 91.2948C167.225 91.5423 167.288 91.8298 167.215 92.1074C167.141 92.3851 166.936 92.6355 166.634 92.8153C166.863 93.2865 166.878 93.7979 166.679 94.276L166.502 94.6985C166.502 94.7107 166.455 94.8824 166.073 95.092C165.385 95.47 163.408 96.0465 157.781 96.0465Z" fill="#3F3D56"/>
<path d="M151.711 172.61L159.026 172.294V174.56L165.981 178.032C166.325 178.204 166.583 178.45 166.72 178.735C166.856 179.021 166.862 179.33 166.738 179.618C166.614 179.906 166.365 180.158 166.029 180.337C165.693 180.516 165.286 180.612 164.869 180.612H156.16L154.659 178.371L154.073 180.612H150.789L151.711 172.61Z" fill="#2F2E41"/>
<path d="M159.394 52.1347C160.35 47.8755 156.349 43.8625 150.457 43.1713C144.566 42.4801 139.014 45.3726 138.058 49.6318C137.102 53.891 141.103 57.904 146.995 58.5952C152.887 59.2864 158.438 56.3939 159.394 52.1347Z" fill="#9E616A"/>
<path d="M155.046 43.2488C151.085 41.2795 147.597 40.9795 144.731 41.538C144.36 41.1227 143.839 40.7883 143.224 40.5708C140.99 36.5001 134.189 34.0555 128.352 35.2439C122.478 36.4399 118.425 41.1438 119.53 45.4826C120.215 48.172 122.557 50.5008 123.498 53.1494C125.321 58.2764 120.874 64.1494 113.917 65.8021C120.504 66.7583 127.755 63.8497 130.118 59.3033C131.265 57.095 131.335 54.684 131.481 52.3274C131.519 50.7008 131.795 49.0816 132.303 47.4968C132.555 46.7857 132.912 46.0962 133.366 45.4399C134.357 43.9972 136.002 42.8437 138.026 42.1718C137.845 42.5771 137.8 43.0079 137.894 43.4284C137.988 43.849 138.22 44.2473 138.569 44.5904C137.024 45.9893 136.183 47.5021 136.183 48.4081C132.974 52.6479 137.563 56.2898 143.428 58.6095C145.768 59.5396 148.469 59.88 151.106 59.577L151.351 58.8198L151.683 59.5019L152.793 61.7886C154.073 62.2363 155.343 62.7271 156.601 63.261C156.123 61.6384 155.736 60.0187 155.47 58.4352C155.102 56.2799 156.386 53.0712 157.312 51.1199C157.886 49.9173 158.181 48.6542 158.184 47.382V47.3264L159.086 49.4207L162.37 48.4081C161.759 45.8751 162.37 42.9994 155.046 43.2488Z" fill="#2F2E41"/>
<path d="M290.092 181H49.9082C49.7749 180.999 49.6474 180.961 49.5534 180.892C49.4594 180.824 49.4066 180.732 49.4066 180.635C49.4066 180.539 49.4594 180.447 49.5534 180.378C49.6474 180.31 49.7749 180.271 49.9082 180.271H290.092C290.225 180.271 290.353 180.31 290.447 180.378C290.541 180.447 290.593 180.539 290.593 180.635C290.593 180.732 290.541 180.824 290.447 180.892C290.353 180.961 290.225 180.999 290.092 181Z" fill="#CCCCCC"/>
<path d="M112.918 108.116C118.252 108.116 122.577 104.99 122.577 101.134C122.577 97.2778 118.252 94.1519 112.918 94.1519C107.584 94.1519 103.26 97.2778 103.26 101.134C103.26 104.99 107.584 108.116 112.918 108.116Z" fill="#E6E6E6"/>
<path d="M258.239 97.121H224.363C223.316 97.1201 222.312 96.8191 221.572 96.2839C220.832 95.7488 220.415 95.0233 220.414 94.2665V80.9285C220.415 80.1717 220.832 79.4462 221.572 78.9111C222.312 78.376 223.316 78.075 224.363 78.0742H258.239C259.286 78.075 260.289 78.376 261.029 78.9111C261.77 79.4462 262.186 80.1717 262.187 80.9285V94.2665C262.186 95.0233 261.77 95.7488 261.029 96.2839C260.289 96.8191 259.286 97.1201 258.239 97.121Z" fill="#F2F2F2"/>
<path d="M258.738 91.7033C261.57 91.7033 263.867 90.0432 263.867 87.9954C263.867 85.9477 261.57 84.2876 258.738 84.2876C255.905 84.2876 253.609 85.9477 253.609 87.9954C253.609 90.0432 255.905 91.7033 258.738 91.7033Z" fill="#6C63FF"/>
<path d="M260.868 87.6843H259.124V86.4236C259.124 86.3846 259.113 86.3461 259.093 86.3101C259.072 86.2741 259.042 86.2414 259.004 86.2138C258.965 86.1863 258.92 86.1644 258.87 86.1495C258.821 86.1346 258.767 86.127 258.713 86.127C258.605 86.127 258.5 86.1582 258.423 86.2138C258.346 86.2695 258.303 86.3449 258.303 86.4236V87.6843H256.559C256.45 87.6843 256.346 87.7155 256.269 87.7712C256.192 87.8268 256.149 87.9022 256.149 87.9809C256.149 88.0199 256.159 88.0585 256.18 88.0944C256.201 88.1304 256.231 88.1631 256.269 88.1907C256.307 88.2182 256.352 88.2401 256.402 88.255C256.452 88.2699 256.505 88.2776 256.559 88.2776H258.303V89.5382C258.303 89.5772 258.314 89.6158 258.334 89.6518C258.355 89.6878 258.385 89.7204 258.423 89.748C258.461 89.7755 258.507 89.7974 258.556 89.8123C258.606 89.8272 258.66 89.8349 258.713 89.8349C258.822 89.8349 258.927 89.8036 259.004 89.748C259.081 89.6924 259.124 89.6169 259.124 89.5382V88.2776H260.868C260.977 88.2776 261.081 88.2463 261.158 88.1907C261.235 88.1351 261.278 88.0596 261.278 87.9809C261.278 87.942 261.267 87.9034 261.247 87.8674C261.226 87.8314 261.196 87.7987 261.158 87.7712C261.12 87.7436 261.075 87.7218 261.025 87.7069C260.975 87.692 260.922 87.6843 260.868 87.6843Z" fill="white"/>
<path d="M272.04 93.3357H244.123C242.938 93.3347 241.802 92.9941 240.964 92.3884C240.126 91.7827 239.655 90.9615 239.654 90.105V78.0582C239.654 77.9006 239.741 77.7496 239.896 77.6382C240.05 77.5269 240.259 77.4644 240.477 77.4644C240.695 77.4644 240.904 77.5269 241.059 77.6382C241.213 77.7496 241.3 77.9006 241.301 78.0582V81.2845L273.728 83.4155C274.376 83.4238 274.993 83.6155 275.447 83.9494C275.901 84.2832 276.156 84.7326 276.157 85.2009C276.157 85.2377 276.152 85.2744 276.143 85.3106L274.509 91.6109C274.486 92.0735 274.216 92.5117 273.756 92.8334C273.296 93.1551 272.681 93.3352 272.04 93.3357ZM241.301 82.4798V90.105C241.302 90.6459 241.599 91.1645 242.128 91.547C242.657 91.9295 243.375 92.1446 244.123 92.1452H272.04C272.259 92.1451 272.468 92.0823 272.622 91.9707C272.777 91.8591 272.863 91.7078 272.864 91.55C272.864 91.5132 272.868 91.4765 272.878 91.4403L274.508 85.155C274.492 85.0056 274.398 84.8661 274.246 84.7643C274.094 84.6625 273.894 84.6059 273.687 84.6057C273.662 84.6057 273.637 84.6049 273.612 84.6032L241.301 82.4798Z" fill="#6C63FF"/>
<path d="M236.705 98.8913C237.463 98.8913 238.077 98.4472 238.077 97.8993C238.077 97.3514 237.463 96.9072 236.705 96.9072C235.947 96.9072 235.333 97.3514 235.333 97.8993C235.333 98.4472 235.947 98.8913 236.705 98.8913Z" fill="#6C63FF"/>
<path d="M270.942 98.8913C271.7 98.8913 272.315 98.4472 272.315 97.8993C272.315 97.3514 271.7 96.9072 270.942 96.9072C270.184 96.9072 269.57 97.3514 269.57 97.8993C269.57 98.4472 270.184 98.8913 270.942 98.8913Z" fill="#6C63FF"/>
<path d="M272.315 96.9073H235.607C235.389 96.9073 235.179 96.8445 235.025 96.7329C234.87 96.6213 234.784 96.4699 234.784 96.312C234.784 96.1542 234.87 96.0028 235.025 95.8911C235.179 95.7795 235.389 95.7168 235.607 95.7168H272.315C272.533 95.7168 272.742 95.7795 272.897 95.8911C273.051 96.0028 273.138 96.1542 273.138 96.312C273.138 96.4699 273.051 96.6213 272.897 96.7329C272.742 96.8445 272.533 96.9073 272.315 96.9073Z" fill="#6C63FF"/>
<path d="M242.673 78.4551H235.537C235.319 78.4547 235.11 78.3919 234.956 78.2803C234.802 78.1687 234.715 78.0175 234.715 77.8599C234.715 77.7022 234.802 77.5511 234.956 77.4395C235.11 77.3279 235.319 77.265 235.537 77.2646H242.673C242.891 77.265 243.1 77.3279 243.254 77.4395C243.408 77.5511 243.494 77.7022 243.494 77.8599C243.494 78.0175 243.408 78.1687 243.254 78.2803C243.1 78.3919 242.891 78.4547 242.673 78.4551Z" fill="#6C63FF"/>
<path d="M248.398 96.6041C248.201 96.6043 248.01 96.5532 247.861 96.4604L242.449 93.0983C242.367 93.0474 242.299 92.9853 242.25 92.9155C242.201 92.8457 242.172 92.7696 242.164 92.6916C242.155 92.6135 242.168 92.5351 242.202 92.4607C242.236 92.3863 242.29 92.3175 242.36 92.2581C242.431 92.1987 242.517 92.15 242.613 92.1147C242.71 92.0794 242.815 92.0583 242.923 92.0524C243.031 92.0466 243.14 92.0562 243.243 92.0807C243.345 92.1053 243.441 92.1442 243.523 92.1953L248.935 95.5574C249.062 95.6367 249.153 95.7423 249.195 95.86C249.237 95.9777 249.228 96.1019 249.17 96.2159C249.111 96.3299 249.006 96.4282 248.868 96.4976C248.73 96.567 248.566 96.6042 248.398 96.6041Z" fill="#6C63FF"/>
<path d="M249.538 92.9704C249.43 92.9704 249.323 92.955 249.223 92.9251C249.123 92.8952 249.032 92.8513 248.956 92.7961C248.879 92.7408 248.819 92.6752 248.777 92.603C248.736 92.5308 248.715 92.4534 248.715 92.3752V82.8203C248.715 82.6625 248.801 82.5111 248.956 82.3994C249.11 82.2878 249.32 82.2251 249.538 82.2251C249.756 82.2251 249.966 82.2878 250.12 82.3994C250.275 82.5111 250.361 82.6625 250.361 82.8203V92.3751C250.361 92.4533 250.34 92.5307 250.299 92.6029C250.257 92.6751 250.197 92.7407 250.12 92.796C250.044 92.8513 249.953 92.8951 249.853 92.925C249.753 92.9549 249.646 92.9703 249.538 92.9704Z" fill="#6C63FF"/>
<path d="M266.931 92.9703C266.823 92.9703 266.716 92.9549 266.616 92.925C266.516 92.8951 266.425 92.8513 266.349 92.796C266.273 92.7407 266.212 92.6751 266.17 92.6029C266.129 92.5307 266.108 92.4533 266.108 92.3751V83.6139C266.108 83.4563 266.195 83.3052 266.35 83.1939C266.504 83.0825 266.713 83.02 266.931 83.02C267.149 83.02 267.358 83.0825 267.513 83.1939C267.667 83.3052 267.754 83.4563 267.755 83.6139V92.3751C267.755 92.4532 267.733 92.5306 267.692 92.6028C267.651 92.6751 267.59 92.7407 267.513 92.7959C267.437 92.8512 267.346 92.8951 267.246 92.925C267.146 92.9549 267.039 92.9703 266.931 92.9703Z" fill="#6C63FF"/>
</g>
<defs>
<clipPath id="clip0_136_44">
<rect width="340" height="181" fill="white"/>
</clipPath>
</defs>
</svg>
