<svg width="82" height="86" viewBox="0 0 82 86" fill="none" xmlns="http://www.w3.org/2000/svg">
<g clip-path="url(#clip0_137_105)">
<path d="M45.4889 81.6073C50.0366 78.9566 53.428 74.0683 52.9068 69.0244C48.7696 72.8888 43.3267 75.2385 37.5411 75.658C35.3092 75.8121 32.8099 75.7627 31.1862 77.2254C30.1759 78.1355 29.7189 79.492 29.6596 80.8134C29.6003 82.1348 29.8975 83.4445 30.1929 84.737L30.1021 85.0557C35.4376 85.0062 40.9412 84.2581 45.4889 81.6073Z" fill="#F0F0F0"/>
<path d="M52.795 69.0205C51.0124 72.8586 48.0019 76.0656 44.1911 78.186C43.3793 78.6563 42.4945 79.0021 41.5693 79.2107C40.6611 79.3862 39.72 79.3275 38.8437 79.0407C38.0211 78.7889 37.2103 78.4409 36.3375 78.3834C35.8903 78.3603 35.443 78.4272 35.0249 78.5798C34.6069 78.7324 34.2275 78.9673 33.9117 79.2689C33.1041 80.0011 32.6217 80.9652 32.1845 81.9235C31.699 82.9876 31.2125 84.1002 30.2636 84.8731C30.1486 84.9668 30.3084 85.1308 30.4231 85.0373C32.074 83.6925 32.315 81.4728 33.6275 79.8972C34.2399 79.1619 35.0893 78.5976 36.108 78.5991C36.9987 78.6004 37.8351 78.9586 38.6658 79.2204C39.5162 79.5121 40.429 79.6015 41.3242 79.4809C42.2576 79.3177 43.155 79.0048 43.9779 78.5557C45.8475 77.5726 47.5427 76.3164 49.0014 74.8331C50.6762 73.149 52.0353 71.2051 53.02 69.0857C53.0808 68.9545 52.8555 68.8901 52.795 69.0205Z" fill="white"/>
<path d="M45.4604 77.5715C45.9218 78.1305 46.5773 78.5156 47.3099 78.6579C48.0425 78.8002 48.8045 78.6905 49.4599 78.3484C49.5922 78.2788 49.4845 78.0801 49.352 78.1499C48.7423 78.4695 48.0325 78.5716 47.3506 78.4378C46.6687 78.3039 46.0596 77.9429 45.6332 77.42C45.5404 77.3064 45.3682 77.4586 45.4604 77.5715Z" fill="white"/>
<path d="M39.2431 79.2207C39.4134 77.7778 40.15 76.4488 41.306 75.4988C41.4206 75.4048 41.2609 75.2408 41.1464 75.3347C39.9454 76.3254 39.1818 77.7099 39.0081 79.2118C38.9917 79.355 39.2268 79.3631 39.2431 79.2207Z" fill="white"/>
<path d="M50.3831 73.0478C50.1572 72.8669 49.9821 72.6354 49.8736 72.3743C49.7651 72.1132 49.7265 71.8306 49.7614 71.5518C49.7798 71.4089 49.5447 71.4009 49.5265 71.5429C49.4894 71.8511 49.5324 72.1631 49.6516 72.4519C49.7708 72.7407 49.9626 72.9973 50.2104 73.1994C50.232 73.2203 50.2613 73.2326 50.2921 73.2337C50.323 73.2349 50.3532 73.2249 50.3765 73.2057C50.3993 73.1855 50.4128 73.1576 50.414 73.128C50.4152 73.0985 50.4041 73.0697 50.3831 73.0478Z" fill="white"/>
<path d="M37.9274 59.4321C37.9133 59.521 37.8991 59.61 37.8832 59.6997C37.6867 60.8942 37.3884 62.0716 36.9911 63.2202C36.9619 63.3095 36.9308 63.3995 36.899 63.4878C35.9108 66.2453 34.3923 68.8047 32.4206 71.0357C31.6351 71.9228 30.7797 72.7518 29.8619 73.5156C28.5942 74.5704 27.1313 75.6182 26.3282 76.9694C26.2427 77.1095 26.1664 77.2545 26.0999 77.4035L29.6999 84.9257C29.7171 84.9389 29.7325 84.953 29.7498 84.9663L29.8791 85.2728C29.9293 85.2366 29.9806 85.198 30.0308 85.1617C30.0601 85.1408 30.0885 85.1182 30.1177 85.0973C30.137 85.0828 30.1562 85.0682 30.1744 85.0562C30.1808 85.0514 30.1872 85.0466 30.1918 85.0425C30.2101 85.0305 30.2257 85.0175 30.2421 85.0063C30.5294 84.7911 30.8155 84.5737 31.1006 84.354C31.1025 84.3532 31.1025 84.3532 31.1035 84.3507C33.2712 82.6712 35.3105 80.8049 36.9866 78.7041C37.0371 78.6408 37.0893 78.5769 37.1381 78.5103C37.8881 77.5593 38.555 76.5517 39.1322 75.4975C39.4463 74.9193 39.7294 74.3264 39.9804 73.721C40.6257 72.1556 41.0078 70.5035 41.1126 68.8253C41.321 65.4799 40.4008 62.1083 38.1048 59.6206C38.046 59.557 37.988 59.4949 37.9274 59.4321Z" fill="#F0F0F0"/>
<path d="M37.835 59.4925C38.8445 63.5765 38.4735 67.8587 36.7749 71.731C36.4248 72.5708 35.9375 73.353 35.331 74.0486C34.7171 74.7081 33.9285 75.1995 33.0471 75.4716C32.2306 75.741 31.3627 75.9268 30.6294 76.38C30.2576 76.6173 29.9429 76.9266 29.7058 77.2875C29.4688 77.6484 29.3147 78.0529 29.2537 78.4743C29.073 79.5207 29.299 80.5664 29.5573 81.5816C29.8442 82.7089 30.1609 83.8755 29.8932 85.0352C29.8608 85.1758 30.0922 85.2154 30.1246 85.075C30.5904 83.0572 29.3758 81.1471 29.425 79.1385C29.448 78.2012 29.7685 77.2648 30.5828 76.6835C31.2948 76.1751 32.1897 75.9828 33.0189 75.7168C33.8828 75.4634 34.6683 75.0128 35.3066 74.4045C35.9484 73.7404 36.4666 72.9774 36.839 72.1482C37.7086 70.2941 38.2659 68.3216 38.4904 66.303C38.7601 64.0006 38.6132 61.6713 38.056 59.416C38.0214 59.2764 37.8007 59.3539 37.835 59.4925Z" fill="white"/>
<path d="M37.3991 70.5147C38.1217 70.6972 38.8892 70.6298 39.5643 70.3244C40.2395 70.0191 40.7784 69.4957 41.0848 68.8478C41.1463 68.7165 40.9344 68.6195 40.8728 68.751C40.5886 69.3548 40.0866 69.8423 39.4573 70.1254C38.828 70.4085 38.1128 70.4686 37.441 70.2949C37.2949 70.2573 37.2538 70.4773 37.3991 70.5147Z" fill="white"/>
<path d="M33.48 75.3867C32.7013 74.1372 32.4471 72.6549 32.7679 71.2353C32.7998 71.0947 32.5684 71.055 32.5365 71.1955C32.2056 72.6734 32.4734 74.2155 33.2867 75.514C33.3644 75.6377 33.5572 75.5098 33.48 75.3867Z" fill="white"/>
<path d="M38.462 64.0871C38.1669 64.0719 37.8804 63.9872 37.6282 63.8408C37.3761 63.6944 37.1661 63.4907 37.0173 63.2482C36.9414 63.1236 36.7486 63.2517 36.8241 63.3755C36.9898 63.6427 37.2219 63.8673 37.5001 64.0297C37.7783 64.1921 38.0942 64.2873 38.4201 64.307C38.4506 64.3112 38.4818 64.3043 38.5071 64.2876C38.5325 64.2709 38.5502 64.2456 38.5567 64.2169C38.5621 64.1878 38.5552 64.1578 38.5374 64.1335C38.5197 64.1092 38.4926 64.0926 38.462 64.0871Z" fill="white"/>
<path d="M16.0216 83.8005L18.3053 83.8004L19.3917 75.4336L16.0212 75.4337L16.0216 83.8005Z" fill="#FFB6B6"/>
<path d="M15.4391 83.0925L16.0819 83.0925L18.5914 82.123L19.9365 83.0923H19.9367C20.6968 83.0923 21.4258 83.3792 21.9632 83.8897C22.5007 84.4002 22.8027 85.0926 22.8028 85.8146V85.9031L15.4392 85.9034L15.4391 83.0925Z" fill="#2F2E41"/>
<path d="M26.6312 83.8005L28.9149 83.8004L30.0013 75.4336L26.6309 75.4337L26.6312 83.8005Z" fill="#FFB6B6"/>
<path d="M26.0487 83.0925L26.6915 83.0925L29.2011 82.123L30.5461 83.0923H30.5463C31.3064 83.0923 32.0354 83.3792 32.5729 83.8897C33.1103 84.4002 33.4123 85.0926 33.4124 85.8146V85.9031L26.0488 85.9034L26.0487 83.0925Z" fill="#2F2E41"/>
<path d="M14.2039 30.2329L17.2229 39.0507L26.7403 38.7543L23.8158 30.2329H14.2039Z" fill="#E6E6E6"/>
<path d="M28.4566 38.0132L10.5139 38.4578L10.826 46.757C10.826 46.757 10.5139 48.98 11.138 49.5728C11.7621 50.1656 12.0741 50.1656 11.7621 51.203C11.4501 52.2404 13.0987 53.9348 12.8985 54.125C12.6982 54.3152 12.2302 55.3526 12.2302 55.3526L13.7904 63.8C13.7904 63.8 14.8826 78.4718 15.1946 78.7682C15.5067 79.0646 15.8187 78.7682 15.5067 79.5092C15.1946 80.2502 14.8826 79.9538 15.1946 80.2502C15.471 80.5332 15.7314 80.8301 15.9747 81.1394H19.7469C19.7469 81.1394 20.0313 79.6574 20.0313 79.5092C20.0313 79.361 20.3434 78.4718 20.3434 78.3236C20.3434 78.1754 20.0676 77.9134 20.0676 77.9134C19.9723 77.6121 19.9079 77.3028 19.8753 76.9898C19.8753 76.6934 18.9392 65.282 18.9392 65.282L20.8114 50.462L25.3361 64.9856C25.3361 64.9856 25.3361 77.7308 25.6482 78.0272C25.9602 78.3236 25.9602 78.1754 25.8042 78.7682C25.6482 79.361 25.0241 79.2128 25.4921 79.6574C25.9602 80.102 26.1162 79.361 25.9602 80.102L25.8042 80.843L30.4849 80.9066C30.4849 80.9066 31.109 79.6574 30.7969 79.2128C30.4849 78.7682 30.5036 78.8895 30.8843 78.1619C31.265 77.4344 31.421 77.2862 31.265 77.138C31.109 76.9898 31.109 76.2015 31.109 76.2015L30.3288 62.0216C30.3288 62.0216 30.1728 47.0534 30.1728 46.6088C30.1611 46.38 30.2054 46.1518 30.3024 45.9421V45.3386L29.7048 43.2002L28.4566 38.0132Z" fill="#2F2E41"/>
<path d="M26.8184 16.45L21.3576 14.5234L12.3082 15.1162L10.2129 16.045C9.4759 16.3717 8.87595 16.9243 8.50947 17.6139C8.14298 18.3035 8.03124 19.0902 8.19221 19.8474L10.904 32.6038L9.18775 45.2008C9.18775 45.2008 17.691 49.1281 20.3434 38.9023L21.2795 35.0491C21.2795 35.0491 21.5916 46.9051 30.4849 44.3857C30.4849 44.3857 30.3289 42.0145 30.1729 41.1253C30.0168 40.2361 29.7048 40.2361 29.5488 39.7915C29.3927 39.3469 29.0807 39.7915 29.3927 38.9023C29.7048 38.0131 26.8964 31.7887 26.8964 31.7887L26.8184 16.45Z" fill="#2F2E41"/>
<path d="M19.5633 26.3055L13.7352 15.0229L15.1947 12.5229H19.9239L21.7973 14.6788L19.5633 26.3055Z" fill="#E6E6E6"/>
<path d="M16.6552 38.5839C16.4009 38.5978 16.1465 38.5586 15.9099 38.469C15.6732 38.3795 15.4602 38.2417 15.2857 38.0655C15.1112 37.8892 14.9795 37.6788 14.8999 37.449C14.8202 37.2192 14.7946 36.9756 14.8249 36.7353L9.25769 34.1618L12.0257 32.604L16.888 35.2867C17.3096 35.3617 17.6875 35.5809 17.9502 35.9028C18.2129 36.2248 18.3421 36.6271 18.3134 37.0335C18.2847 37.4399 18.1 37.8222 17.7944 38.108C17.4888 38.3937 17.0834 38.563 16.6552 38.5839Z" fill="#FFB8B8"/>
<path d="M5.22078 32.2987C4.95521 31.9907 4.64644 29.8441 5.22855 29.3403C5.71948 28.9156 5.61237 28.7181 5.30024 28.2734C5.02918 27.8871 7.10997 20.7563 8.30605 17.4428C8.46549 17.0021 8.79496 16.6352 9.228 16.4162C9.66103 16.1972 10.1654 16.1423 10.6393 16.2627C11.1133 16.383 11.5216 16.6696 11.7818 17.0647C12.042 17.4597 12.1347 17.9338 12.0414 18.3913C12.4636 22.6335 11.8632 25.5267 10.1523 27.486L15.438 34.1375L14.4681 37.5157C14.4681 37.5157 5.46282 32.5793 5.22078 32.2987Z" fill="#2F2E41"/>
<path d="M17.6131 10.9667C20.2843 10.9667 22.4498 8.90982 22.4498 6.37252C22.4498 3.83521 20.2843 1.77832 17.6131 1.77832C14.9418 1.77832 12.7764 3.83521 12.7764 6.37252C12.7764 8.90982 14.9418 10.9667 17.6131 10.9667Z" fill="#FFB8B8"/>
<path d="M22.735 3.03978C22.6065 1.94102 20.9356 0.842254 17.9794 0.109747C15.0232 -0.622768 13.4809 2.55144 13.4809 2.55144C11.4244 3.52811 12.6454 8.71673 13.2881 8.22838C13.9307 7.74005 14.5091 8.5336 14.5091 8.5336L14.9847 4.46822C15.6616 4.96098 16.4247 5.37819 17.2437 5.25418L16.2413 4.3167C17.1914 4.70934 18.1414 5.10198 19.0914 5.49463C18.7769 5.08357 18.4624 4.67251 18.1479 4.26145C18.1804 4.26046 18.213 4.2591 18.2455 4.25793C18.6726 4.59531 19.1616 4.85501 19.6878 5.02401C20.3113 5.19374 21.0582 5.10192 21.4854 4.63839C21.6004 4.51047 21.6873 4.36196 21.7409 4.20163C22.5165 4.70623 22.6707 5.7867 22.6707 5.7867C22.6707 5.7867 22.8635 4.13854 22.735 3.03978Z" fill="#2F2E41"/>
<path d="M18.5047 36.0015C23.127 36.0015 26.8741 32.4423 26.8741 28.0518C26.8741 23.6613 23.127 20.1021 18.5047 20.1021C13.8825 20.1021 10.1354 23.6613 10.1354 28.0518C10.1354 32.4423 13.8825 36.0015 18.5047 36.0015Z" fill="#6C63FF"/>
<path d="M20.0187 33.4328C20.1585 33.2305 20.3433 33.0599 20.56 32.9328C20.7768 32.8058 21.0203 32.7254 21.2733 32.6974C21.5262 32.6694 21.7826 32.6944 22.0244 32.7706C22.2661 32.8469 22.4872 32.9726 22.6723 33.1389L28.1663 30.4272L27.833 33.4669L22.6669 35.5759C22.3523 35.8526 21.9417 36.0101 21.5129 36.0186C21.0842 36.027 20.6671 35.8857 20.3407 35.6216C20.0142 35.3574 19.8012 34.9887 19.7418 34.5853C19.6825 34.1819 19.781 33.7718 20.0187 33.4328Z" fill="#FFB8B8"/>
<path d="M23.4104 35.4406L22.4404 32.0623L27.2581 27.6339C25.5472 25.6745 24.9468 22.7814 25.369 18.5392C25.2755 18.0816 25.3682 17.6074 25.6284 17.2123C25.8886 16.8172 26.2969 16.5305 26.7709 16.4101C27.2449 16.2897 27.7494 16.3446 28.1824 16.5637C28.6155 16.7828 28.945 17.1498 29.1043 17.5906C30.3004 20.9041 31.6584 24.983 31.3349 25.5975C31.2918 25.6792 31.2528 25.7522 31.2176 25.8178C30.9279 26.3589 30.9279 26.3589 31.2099 26.7071C31.2451 26.7506 31.2844 26.799 31.3275 26.8537C31.4367 26.992 31.5544 27.122 31.6683 27.2477C32.0349 27.6526 32.3812 28.035 32.1101 28.4212C31.798 28.866 31.6909 29.0634 32.1818 29.4882C32.7639 29.9919 32.4552 32.1386 32.1896 32.4466C31.9476 32.7272 24.8991 34.9692 23.4886 35.4158L23.4104 35.4406Z" fill="#2F2E41"/>
<path d="M46.2438 86H0.143439C0.105396 86 0.0689103 85.9857 0.0420103 85.9601C0.0151102 85.9346 0 85.8999 0 85.8638C0 85.8277 0.0151102 85.793 0.0420103 85.7674C0.0689103 85.7419 0.105396 85.7275 0.143439 85.7275H46.2438C46.2627 85.7275 46.2814 85.731 46.2988 85.7378C46.3163 85.7446 46.3322 85.7546 46.3455 85.7673C46.3589 85.7799 46.3695 85.795 46.3767 85.8115C46.384 85.8281 46.3877 85.8459 46.3877 85.8638C46.3877 85.8817 46.384 85.8995 46.3767 85.916C46.3695 85.9326 46.3589 85.9476 46.3455 85.9603C46.3322 85.9729 46.3163 85.983 46.2988 85.9898C46.2814 85.9966 46.2627 86.0001 46.2438 86Z" fill="#CCCCCC"/>
<path d="M80.6737 13.1639H63.8151C63.4635 13.1635 63.1264 13.0307 62.8778 12.7945C62.6291 12.5583 62.4893 12.2381 62.4889 11.9042V3.93402C62.4893 3.60004 62.6291 3.27984 62.8778 3.04369C63.1264 2.80753 63.4635 2.67469 63.8151 2.67432H80.6737C81.0253 2.67469 81.3624 2.80753 81.6111 3.04369C81.8597 3.27984 81.9995 3.60004 81.9999 3.93402V11.9042C81.9995 12.2381 81.8597 12.5583 81.6111 12.7945C81.3624 13.0307 81.0253 13.1635 80.6737 13.1639Z" fill="#E6E6E6"/>
<path d="M77.9041 17.3389H66.5474C66.2135 17.3386 65.8934 17.2123 65.6574 16.9879C65.4214 16.7635 65.2888 16.4593 65.2888 16.1421C65.2888 15.8249 65.4214 15.5207 65.6574 15.2963C65.8934 15.0719 66.2135 14.9457 66.5474 14.9453H77.9041C78.0697 14.9451 78.2337 14.976 78.3867 15.036C78.5397 15.0961 78.6788 15.1842 78.796 15.2954C78.9131 15.4065 79.0061 15.5385 79.0695 15.6838C79.1329 15.8291 79.1655 15.9848 79.1655 16.1421C79.1655 16.2994 79.1329 16.4551 79.0695 16.6004C79.0061 16.7457 78.9131 16.8777 78.796 16.9889C78.6788 17.1 78.5397 17.1882 78.3867 17.2482C78.2337 17.3083 78.0697 17.3391 77.9041 17.3389Z" fill="#E6E6E6"/>
<path d="M80.6737 36.0394H63.8151C63.4635 36.039 63.1264 35.9062 62.8778 35.67C62.6291 35.4338 62.4893 35.1136 62.4889 34.7797V26.8095C62.4893 26.4755 62.6291 26.1553 62.8778 25.9192C63.1264 25.683 63.4635 25.5502 63.8151 25.5498H80.6737C81.0253 25.5502 81.3624 25.683 81.6111 25.9192C81.8597 26.1553 81.9995 26.4755 81.9999 26.8095V34.7797C81.9995 35.1136 81.8597 35.4338 81.6111 35.67C81.3624 35.9062 81.0253 36.039 80.6737 36.0394Z" fill="#E6E6E6"/>
<path d="M77.9042 39.9395H66.5475C66.2133 39.9395 65.8928 39.8134 65.6565 39.589C65.4202 39.3645 65.2875 39.0601 65.2875 38.7427C65.2875 38.4253 65.4202 38.1209 65.6565 37.8964C65.8928 37.672 66.2133 37.5459 66.5475 37.5459H77.9042C78.2383 37.5459 78.5588 37.672 78.7951 37.8964C79.0314 38.1209 79.1642 38.4253 79.1642 38.7427C79.1642 39.0601 79.0314 39.3645 78.7951 39.589C78.5588 39.8134 78.2383 39.9395 77.9042 39.9395Z" fill="#E6E6E6"/>
<path d="M80.6737 58.7669H63.8151C63.4635 58.7665 63.1264 58.6337 62.8778 58.3975C62.6292 58.1614 62.4893 57.8412 62.4889 57.5072V49.537C62.4893 49.2031 62.6291 48.8829 62.8778 48.6467C63.1264 48.4106 63.4635 48.2777 63.8151 48.2773H80.6737C81.0253 48.2777 81.3624 48.4106 81.6111 48.6467C81.8597 48.8829 81.9995 49.2031 81.9999 49.537V57.5072C81.9995 57.8412 81.8597 58.1614 81.6111 58.3975C81.3624 58.6337 81.0253 58.7665 80.6737 58.7669Z" fill="#E6E6E6"/>
<path d="M77.9041 62.6881H66.5474C66.2135 62.6877 65.8934 62.5615 65.6574 62.3371C65.4214 62.1127 65.2888 61.8084 65.2888 61.4912C65.2888 61.1741 65.4214 60.8699 65.6574 60.6455C65.8934 60.421 66.2135 60.2948 66.5474 60.2944H77.9041C78.0697 60.2943 78.2337 60.3251 78.3867 60.3852C78.5397 60.4452 78.6788 60.5334 78.796 60.6445C78.9131 60.7557 79.0061 60.8877 79.0695 61.0329C79.1329 61.1782 79.1655 61.334 79.1655 61.4912C79.1655 61.6485 79.1329 61.8043 79.0695 61.9496C79.0061 62.0949 78.9131 62.2268 78.796 62.338C78.6788 62.4492 78.5397 62.5373 78.3867 62.5973C78.2337 62.6574 78.0697 62.6882 77.9041 62.6881Z" fill="#E6E6E6"/>
<path d="M17.5191 31.7711C17.4006 31.7708 17.2841 31.7419 17.1804 31.6873C17.0696 31.6305 16.9771 31.5461 16.913 31.4431C16.8488 31.3401 16.8154 31.2224 16.8164 31.1028V25.5936C16.8164 25.4742 16.8502 25.3569 16.9142 25.2541C16.9783 25.1513 17.0702 25.0667 17.1804 25.0092C17.2906 24.9517 17.4151 24.9233 17.5408 24.9271C17.6665 24.9309 17.7888 24.9667 17.895 25.0307L23.3968 27.7853C23.4966 27.8455 23.5787 27.9287 23.6357 28.0271C23.6926 28.1255 23.7224 28.2359 23.7224 28.3482C23.7224 28.4605 23.6926 28.571 23.6357 28.6694C23.5787 28.7678 23.4966 28.8509 23.3968 28.9111L17.895 31.6657C17.7828 31.7342 17.6524 31.7707 17.5191 31.7711Z" fill="white"/>
<path d="M70.4727 10.6598C70.3769 10.6596 70.2829 10.6363 70.1992 10.5922C70.1097 10.5463 70.035 10.4781 69.9832 10.395C69.9314 10.3119 69.9045 10.2169 69.9053 10.1203V5.67223C69.9053 5.57578 69.9326 5.4811 69.9843 5.39809C70.0359 5.31508 70.1102 5.24678 70.1992 5.20033C70.2881 5.15389 70.3886 5.131 70.4901 5.13406C70.5916 5.13712 70.6904 5.16602 70.7761 5.21773L75.2182 7.44176C75.2988 7.49037 75.3651 7.55751 75.4111 7.63696C75.457 7.71641 75.4811 7.80559 75.4811 7.89625C75.4811 7.9869 75.457 8.07608 75.4111 8.15553C75.3651 8.23498 75.2988 8.30212 75.2182 8.35074L70.7761 10.5748C70.6855 10.63 70.5803 10.6595 70.4727 10.6598Z" fill="white"/>
<path d="M70.4316 33.631C70.3359 33.6308 70.2419 33.6075 70.1582 33.5634C70.0687 33.5175 69.994 33.4493 69.9422 33.3662C69.8904 33.283 69.8635 33.1881 69.8643 33.0915V28.6434C69.8643 28.547 69.8915 28.4523 69.9432 28.3693C69.9949 28.2863 70.0692 28.218 70.1581 28.1715C70.2471 28.1251 70.3476 28.1022 70.4491 28.1053C70.5506 28.1083 70.6494 28.1372 70.7351 28.1889L75.1772 30.4129C75.2578 30.4616 75.3241 30.5287 75.3701 30.6082C75.416 30.6876 75.4401 30.7768 75.4401 30.8674C75.4401 30.9581 75.416 31.0473 75.3701 31.1267C75.3241 31.2062 75.2578 31.2733 75.1772 31.3219L70.7351 33.5459C70.6445 33.6012 70.5393 33.6307 70.4316 33.631Z" fill="white"/>
<path d="M70.3906 56.6022C70.2949 56.6019 70.2008 56.5787 70.1172 56.5346C70.0276 56.4887 69.953 56.4205 69.9012 56.3374C69.8494 56.2542 69.8225 56.1593 69.8233 56.0627V51.6146C69.8233 51.5182 69.8505 51.4235 69.9022 51.3405C69.9539 51.2575 70.0281 51.1892 70.1171 51.1427C70.2061 51.0963 70.3066 51.0734 70.4081 51.0764C70.5096 51.0795 70.6083 51.1084 70.6941 51.1601L75.1362 53.3841C75.2168 53.4328 75.2831 53.4999 75.3291 53.5793C75.375 53.6588 75.3991 53.748 75.3991 53.8386C75.3991 53.9293 75.375 54.0185 75.3291 54.0979C75.2831 54.1774 75.2168 54.2445 75.1362 54.2931L70.6941 56.5171C70.6035 56.5724 70.4982 56.6019 70.3906 56.6022Z" fill="white"/>
</g>
<defs>
<clipPath id="clip0_137_105">
<rect width="82" height="86" fill="white"/>
</clipPath>
</defs>
</svg>
